<?xml version="1.0" encoding="UTF-8" standalone="no"?>
<!-- Created with Inkscape (http://www.inkscape.org/) -->

<svg
   width="18.891232mm"
   height="18.58161mm"
   viewBox="0 0 18.891228 18.581608"
   version="1.1"
   id="svg1"
   inkscape:version="1.3.2 (091e20ef0f, 2023-11-25, custom)"
   sodipodi:docname="golden-hair-favicon.svg"
   xmlns:inkscape="http://www.inkscape.org/namespaces/inkscape"
   xmlns:sodipodi="http://sodipodi.sourceforge.net/DTD/sodipodi-0.dtd"
   xmlns="http://www.w3.org/2000/svg"
   xmlns:svg="http://www.w3.org/2000/svg">
  <sodipodi:namedview
     id="namedview1"
     pagecolor="#505050"
     bordercolor="#eeeeee"
     borderopacity="1"
     inkscape:showpageshadow="0"
     inkscape:pageopacity="0"
     inkscape:pagecheckerboard="0"
     inkscape:deskcolor="#505050"
     inkscape:document-units="mm"
     inkscape:zoom="3.7112646"
     inkscape:cx="10.239097"
     inkscape:cy="40.013315"
     inkscape:window-width="1366"
     inkscape:window-height="738"
     inkscape:window-x="0"
     inkscape:window-y="30"
     inkscape:window-maximized="1"
     inkscape:current-layer="layer1" />
  <defs
     id="defs1" />
  <g
     inkscape:label="Layer 1"
     inkscape:groupmode="layer"
     id="layer1"
     transform="translate(-106.48344,-150.1765)">
    <path
       d="m 112.04456,151.67139 c -0.2152,0.10583 -0.55386,0.43744 -0.6985,0.68439 -0.14111,0.23988 -0.26458,0.59972 -0.26458,0.77963 v 0.12348 l 0.20461,-0.13759 c 0.26811,-0.18697 0.508,-0.44802 0.635,-0.6985 0.127,-0.25047 0.33161,-0.8255 0.29633,-0.8255 -0.0141,0 -0.0917,0.0318 -0.17286,0.0741 z m 3.09386,-1.46403 c -1.40758,0.17992 -2.37419,0.45861 -3.45369,0.99836 -1.62984,0.81844 -2.86809,1.93322 -3.78531,3.40783 -0.69497,1.12184 -1.11478,2.24014 -1.31586,3.51014 -0.0811,0.50448 -0.10936,1.72509 -0.0529,2.22956 0.20461,1.89089 0.85372,3.49955 1.97556,4.8895 0.32102,0.39864 1.09714,1.1677 1.4993,1.48872 1.12183,0.89253 2.53647,1.54164 3.98992,1.83445 1.17122,0.23283 2.59644,0.23283 3.73592,0 2.413,-0.49742 4.62491,-1.91206 5.93372,-3.79237 0.27164,-0.39511 0.57503,-0.87488 0.57503,-0.91369 0,-0.0141 -0.0529,0.007 -0.11995,0.0459 -0.31397,0.19403 -1.00894,0.26811 -1.55222,0.16581 -0.40922,-0.0811 -0.97367,-0.28223 -1.3335,-0.47978 -0.94545,-0.52211 -1.36878,-0.67028 -1.90147,-0.67028 -0.52211,0 -0.89606,0.10936 -1.72156,0.50447 -0.85372,0.40923 -0.81492,0.39159 -1.23119,0.50095 -1.26295,0.32455 -2.55412,0.23636 -3.5172,-0.23989 -0.55739,-0.27517 -1.0548,-0.72672 -1.34761,-1.21709 -0.15169,-0.25047 -0.30339,-0.64205 -0.26811,-0.67733 0.0106,-0.0106 0.0988,0.0776 0.19755,0.19403 0.29634,0.34925 0.80787,0.84314 1.03364,0.99483 0.41981,0.28575 0.89606,0.48331 1.47814,0.61384 0.3175,0.0705 1.2947,0.0635 1.69334,-0.0176 0.5468,-0.10584 1.09361,-0.33514 1.85208,-0.77259 0.96661,-0.55739 1.64394,-0.76552 2.48708,-0.76905 0.58561,0 1.05481,0.0917 1.85209,0.37041 0.43391,0.1517 0.94544,0.29987 0.96308,0.2787 0.0247,-0.0247 -0.15169,-0.61383 -0.29281,-0.97014 -0.25752,-0.64558 -0.4445,-0.89606 -0.95955,-1.28764 -0.55739,-0.4198 -0.74436,-0.78316 -0.74789,-1.45697 -0.007,-0.69497 0.21519,-1.06892 0.77964,-1.32997 0.30339,-0.13759 0.43392,-0.23636 0.43392,-0.33161 0,-0.0318 -0.0529,-0.13759 -0.11995,-0.23636 -0.13758,-0.20814 -0.17992,-0.41628 -0.11994,-0.61031 0.0318,-0.11289 0.0318,-0.16933 -0.004,-0.26106 -0.0388,-0.11289 -0.0176,-0.21519 0.0917,-0.40922 0.007,-0.0106 -0.0529,-0.0388 -0.13406,-0.0635 -0.37747,-0.11289 -0.59972,-0.35278 -0.6985,-0.75847 -0.0247,-0.0953 -0.0706,-0.22931 -0.10583,-0.29986 -0.0811,-0.1517 -0.48684,-0.60325 -0.54681,-0.60325 -0.0529,0 -0.35983,0.3563 -0.50447,0.58208 -0.16228,0.25753 -0.31397,0.60325 -0.41981,0.95956 -0.13052,0.45508 -0.14816,1.07244 -0.0529,1.87325 0.0917,0.762 0.0917,0.94544 0,1.39347 -0.3175,1.56633 -1.27352,2.667 -2.87866,3.30905 -0.82198,0.33162 -1.38289,0.4692 -2.09903,0.52564 -0.91017,0.067 -1.6757,-0.10936 -2.43417,-0.5715 -0.31044,-0.18697 -0.9278,-0.70202 -1.07597,-0.89958 -0.0494,-0.0635 -0.0952,-0.11289 -0.1023,-0.10936 -0.0212,0.0247 0.13758,0.62794 0.23636,0.91017 0.53622,1.48519 1.82386,2.4765 3.43605,2.64583 0.90664,0.0952 1.74625,-0.12347 2.78695,-0.72319 0.87136,-0.50448 1.24177,-0.62795 1.905,-0.63148 0.38452,-0.004 0.49741,0.0106 0.69144,0.0741 0.38453,0.13052 0.71614,0.33161 1.08656,0.66675 l 0.19403,0.17286 0.37041,0.004 c 0.55739,0.004 1.15711,0.14111 1.6757,0.381 0.21519,0.0988 0.27164,0.13758 0.254,0.18344 -0.0318,0.0847 -0.17639,0.25753 -0.2152,0.25753 -0.0212,0.004 -0.15875,-0.0423 -0.31044,-0.10231 -0.58561,-0.22578 -1.2312,-0.31397 -1.84856,-0.25047 -0.43039,0.0423 -0.95955,0.16228 -1.17475,0.26458 -0.0882,0.0423 -0.0988,0.0529 -0.0353,0.0388 0.23636,-0.0494 0.64911,-0.06 0.84314,-0.0212 0.43392,0.0847 0.81845,0.33161 1.0795,0.69145 l 0.13406,0.1905 0.45155,-0.22931 c 0.60678,-0.30692 0.65617,-0.29986 0.32809,0.0529 -0.2152,0.23636 -0.54681,0.46566 -1.2312,0.86078 -1.03364,0.59619 -1.89442,0.98778 -2.94569,1.34761 -1.19239,0.40569 -1.88737,0.53975 -2.57175,0.50094 -0.79728,-0.0494 -1.38995,-0.27869 -2.36714,-0.91016 -0.60325,-0.38806 -1.0407,-0.5962 -1.62278,-0.76906 -1.50989,-0.4445 -1.96145,-0.63853 -2.61408,-1.12889 -0.84667,-0.63853 -1.36878,-1.36525 -1.7392,-2.43064 -0.067,-0.19403 -0.17992,-0.46567 -0.25047,-0.60678 -0.16933,-0.33514 -0.38453,-0.98425 -0.47272,-1.4358 -0.0953,-0.45509 -0.16228,-1.18886 -0.13053,-1.36172 0.0212,-0.11289 0.0353,-0.13053 0.12347,-0.13053 0.0564,0 0.11642,0.0212 0.13758,0.0423 0.0176,0.0247 0.0529,0.21872 0.0741,0.43392 0.0635,0.58208 0.16934,1.19239 0.28223,1.60514 l 0.1023,0.37041 0.004,-0.19403 c 0.004,-0.25047 0.0953,-1.00894 0.15522,-1.30527 l 0.0494,-0.22578 0.14464,0.15522 c 0.0811,0.0882 0.14817,0.1905 0.14817,0.22931 0,0.0388 -0.0247,0.26105 -0.0529,0.49389 -0.16933,1.41816 0.0811,2.40947 0.83961,3.29494 0.36689,0.43039 1.05128,0.93486 1.63689,1.21003 0.28575,0.13405 1.50283,0.55739 1.60161,0.55739 0.0247,0 -0.10583,-0.10584 -0.28928,-0.23636 -0.635,-0.44803 -1.29469,-1.20298 -1.61572,-1.8415 -0.0564,-0.10936 -0.23989,-0.54681 -0.40922,-0.97367 -0.50447,-1.25942 -0.72672,-1.65453 -1.37936,-2.41653 -0.77259,-0.89958 -0.90311,-1.09361 -1.03717,-1.50989 -0.22578,-0.6985 -0.13758,-1.17475 0.18345,-1.016 0.0741,0.0353 0.0847,0.0706 0.1023,0.37395 0.0388,0.56091 0.20461,0.88194 0.83256,1.59103 0.20814,0.23636 0.47977,0.54327 0.60325,0.68086 0.44097,0.49741 0.78669,1.07244 1.16769,1.9438 0.60678,1.37231 1.22414,2.16606 2.20839,2.82928 0.50094,0.33514 1.34408,0.6985 1.97555,0.84314 0.43392,0.10231 1.50637,0.0952 1.93323,-0.0141 0.68439,-0.17286 1.21003,-0.45156 2.14136,-1.13947 0.28222,-0.20814 0.62794,-0.45156 0.77258,-0.53975 0.31397,-0.1905 0.93134,-0.45509 1.21356,-0.51859 0.10936,-0.0247 0.20108,-0.0529 0.20108,-0.0635 -0.004,-0.0388 -0.32103,-0.25753 -0.47625,-0.32455 -0.0811,-0.0353 -0.26811,-0.0847 -0.41628,-0.10936 -0.46566,-0.0706 -0.95602,0.0529 -1.64041,0.41627 -1.3335,0.70909 -1.51695,0.79023 -2.17664,0.95603 -0.48684,0.11995 -1.27,0.1517 -1.78506,0.067 -1.40053,-0.23283 -2.37067,-0.94897 -3.07622,-2.27895 -0.29986,-0.56444 -0.54328,-1.28058 -0.64558,-1.88736 -0.0282,-0.17639 -0.11289,-0.49389 -0.1905,-0.71261 -0.127,-0.36689 -0.24695,-0.87489 -0.24695,-1.04775 0,-0.0529 0.0282,-0.0212 0.0988,0.10231 0.21167,0.381 0.38806,0.61383 0.70909,0.93486 0.27869,0.27869 0.39158,0.36336 0.63852,0.4833 0.88548,0.43039 2.08139,0.53975 3.24556,0.30692 0.85019,-0.17286 1.58044,-0.59972 1.82386,-1.06539 0.31397,-0.59619 0.23636,-1.09361 -0.32808,-2.08844 -0.508,-0.88547 -0.65617,-1.36173 -0.6597,-2.06375 0,-0.51153 0.0494,-0.77964 0.22578,-1.20298 0.46919,-1.12888 1.71803,-1.86972 3.048,-1.80269 0.76906,0.0388 1.51342,0.3175 1.87325,0.70203 0.16228,0.16933 0.56092,0.70555 0.635,0.84314 0.0318,0.067 0.0882,0.2293 0.12347,0.36336 0.0353,0.13053 0.0988,0.27869 0.14111,0.32455 0.0811,0.0882 0.34573,0.20109 0.56798,0.23989 0.0706,0.0141 0.13758,0.0494 0.14816,0.0811 0.0318,0.0811 -0.0141,0.29633 -0.0882,0.4057 -0.067,0.0953 -0.0882,0.20461 -0.0388,0.20461 0.0141,0 0.0459,0.0318 0.0705,0.0741 0.0388,0.06 0.0388,0.0882 -0.007,0.15522 -0.0706,0.10584 -0.0706,0.17992 -0.004,0.20814 0.0635,0.0212 0.0706,0.13758 0.0106,0.22931 -0.0317,0.0529 -0.0212,0.0847 0.0529,0.18697 0.15875,0.20814 0.18345,0.3175 0.10231,0.49742 -0.0776,0.17286 -0.14817,0.2293 -0.56797,0.45155 -0.34573,0.18345 -0.47273,0.31397 -0.55034,0.56797 -0.0953,0.32103 -0.0529,0.85725 0.0882,1.11831 0.0706,0.13406 0.31398,0.381 0.508,0.52211 0.59267,0.42333 0.84314,0.82197 1.20298,1.90853 0.12347,0.381 0.22225,0.61736 0.25752,0.63853 0.13759,0.067 0.87137,-0.0564 1.22767,-0.20814 0.0917,-0.0388 0.17286,-0.067 0.17992,-0.0564 0.0247,0.0247 -0.0529,0.2787 -0.11289,0.36336 -0.0811,0.11642 -0.57856,0.28928 -0.94192,0.32809 -0.59266,0.06 -1.12183,-0.0141 -2.07433,-0.29634 -0.24342,-0.0705 -0.55034,-0.15522 -0.68792,-0.18344 -0.25047,-0.0529 -0.96661,-0.10936 -0.93486,-0.0741 0.0106,0.0106 0.11642,0.0423 0.23636,0.0741 0.28575,0.0741 0.45508,0.14817 1.25942,0.55386 0.37041,0.18345 0.762,0.36336 0.86783,0.39511 0.635,0.19756 1.32292,0.16228 1.81328,-0.0882 0.0776,-0.0423 0.19403,-0.0847 0.25047,-0.0953 0.0882,-0.0176 0.12347,-0.06 0.21872,-0.25047 0.15523,-0.32103 0.41275,-1.09714 0.53975,-1.62278 0.31398,-1.31939 0.31398,-2.85045 0,-4.10986 -0.17286,-0.68439 -0.44097,-1.42875 -0.70908,-1.9685 -1.397,-2.78695 -4.04283,-4.699 -7.17197,-5.18231 -0.4445,-0.067 -1.78153,-0.11642 -2.10256,-0.0776 z m 0.1905,0.75847 c 0.11289,0.0882 0.11995,0.23283 0.0212,0.3422 -0.0882,0.0917 -0.26811,0.1023 -0.35983,0.0176 -0.0882,-0.0811 -0.0847,-0.27163 0.0141,-0.36336 0.0988,-0.0917 0.20461,-0.0917 0.32455,0.004 z m -2.49767,0.11995 c 0.0212,0.0494 -0.42333,1.16416 -0.55386,1.38641 -0.0353,0.0635 -0.067,0.12347 -0.067,0.127 0,0.007 0.0988,-0.0388 0.22225,-0.10583 0.27517,-0.14817 0.76906,-0.31045 1.12536,-0.36689 0.508,-0.0811 1.56281,0.004 1.69334,0.13406 0.0353,0.0353 -0.35278,0.55386 -0.64559,0.85725 -0.35983,0.37747 -0.79022,0.63852 -1.27352,0.77258 -0.19756,0.0564 -0.42686,0.0811 -0.98073,0.10583 -0.67733,0.0282 -0.94191,0.06 -1.17475,0.14817 -0.0741,0.0282 -0.16933,0.15875 -0.38452,0.51858 -0.37395,0.62442 -0.57856,0.94192 -0.62442,0.97367 -0.0212,0.0106 -0.0388,0.0353 -0.0388,0.0494 0,0.0141 0.11289,-0.0282 0.25047,-0.0952 0.39511,-0.18697 0.72672,-0.26106 1.19592,-0.26459 0.38805,-0.004 0.70555,0.0494 0.70555,0.11289 0,0.0176 -0.17286,0.22931 -0.38452,0.46567 -0.635,0.71967 -1.00189,0.99836 -2.01084,1.50989 -0.762,0.38806 -1.09361,0.61383 -1.22413,0.83256 -0.11995,0.20813 -0.27164,0.65969 -0.37042,1.1183 -0.0459,0.20108 -0.0847,0.37042 -0.0917,0.37747 -0.0212,0.0318 -0.16228,-0.127 -0.22931,-0.25752 -0.067,-0.13053 -0.067,-0.14464 -0.0141,-0.37042 0.0318,-0.127 0.11642,-0.41981 0.18697,-0.64558 l 0.127,-0.41275 -0.14111,-0.1905 c -0.45861,-0.60325 -0.63147,-1.38995 -0.49036,-2.20134 0.0494,-0.27869 0.21167,-0.78669 0.254,-0.78669 0.0353,0 0.44803,0.4445 0.53622,0.57502 0.23284,0.34925 0.45156,1.016 0.41628,1.28412 -0.0106,0.0847 -0.0141,0.15169 -0.007,0.15169 0.0106,0 0.0635,-0.0847 0.12347,-0.18697 0.0564,-0.0988 0.24695,-0.35631 0.42334,-0.56445 0.29986,-0.36689 0.54328,-0.74083 1.02658,-1.59455 0.28222,-0.49742 0.43745,-0.71261 0.70556,-0.99131 0.23988,-0.24694 0.23988,-0.2928 0,-0.11289 -0.0847,0.0635 -0.17287,0.13053 -0.20109,0.1517 -0.0706,0.0529 -0.10936,-0.0282 -0.13758,-0.29281 -0.0847,-0.79728 0.38805,-1.59808 1.17122,-1.97908 0.18697,-0.0917 0.73378,-0.2787 0.83608,-0.28222 0.0141,-0.004 0.0353,0.0212 0.0459,0.0494 z m 3.7465,0.21166 c 0.27164,0.10936 0.39864,0.46567 0.26459,0.74789 -0.16228,0.34572 -0.69145,0.3422 -0.87136,-0.007 -0.13759,-0.26812 -0.0459,-0.61384 0.20108,-0.73731 0.14111,-0.0706 0.23636,-0.0706 0.40569,-0.004 z m 1.79917,0.64559 c 0.0952,0.12347 -0.004,0.28927 -0.17286,0.28927 -0.17286,0 -0.23636,-0.23283 -0.0953,-0.33161 0.0882,-0.0635 0.19756,-0.0459 0.26811,0.0423 z m 1.48167,0.0988 c 0.0988,0.067 0.1023,0.20109 0.007,0.29634 -0.0847,0.0847 -0.16581,0.0882 -0.254,0.0106 -0.0776,-0.0706 -0.0811,-0.21519 -0.004,-0.29986 0.0706,-0.0776 0.14816,-0.0811 0.25047,-0.007 z m -9.67317,0.9525 c 0.0353,0.13053 -0.007,0.77964 -0.0741,1.16064 -0.14111,0.81492 -0.41628,1.37936 -0.95955,1.97556 l -0.18345,0.19755 -0.0494,-0.0988 c -0.0282,-0.0529 -0.11289,-0.25048 -0.18697,-0.43392 -0.12347,-0.30692 -0.13406,-0.36336 -0.13406,-0.68792 -0.004,-0.47978 0.14111,-0.89253 0.4692,-1.33703 0.23283,-0.31397 0.90311,-0.86783 1.05127,-0.86783 0.0247,0 0.0565,0.0423 0.067,0.0917 z m 3.1115,2.65995 c 0.16228,0.15169 0.0741,0.42333 -0.13405,0.42333 -0.14464,0 -0.25048,-0.1023 -0.25401,-0.24342 -0.007,-0.21872 0.22931,-0.32455 0.38806,-0.17991 z m 11.07017,0.254 c -0.16228,0.56444 -0.16228,0.69144 -0.0176,1.21003 0.127,0.46566 0.16933,1.00189 0.1023,1.29116 -0.0882,0.37042 -0.16227,0.508 -0.76552,1.37936 -0.11289,0.16581 -0.23989,0.37748 -0.27517,0.46567 l -0.067,0.16228 -0.13758,-0.32456 c -0.22578,-0.5468 -0.28575,-0.85019 -0.28575,-1.43933 0.004,-0.45156 0.0141,-0.55033 0.0953,-0.82197 0.0529,-0.16934 0.15875,-0.43392 0.23283,-0.58561 0.1905,-0.37748 0.61736,-1.00542 0.83256,-1.2312 0.19402,-0.19755 0.32455,-0.24694 0.28575,-0.10583 z m -11.4547,0.68439 c 0.13053,0.1658 0.0776,0.36336 -0.11641,0.43744 -0.17287,0.0635 -0.33514,-0.0705 -0.33867,-0.27869 0,-0.16581 0.0847,-0.25048 0.25047,-0.25048 0.10231,0 0.14817,0.0212 0.20461,0.0917 z m 12.05089,1.3088 c 0.1517,0.87136 0.19403,1.60161 0.127,2.00731 -0.06,0.34572 -0.26458,0.74083 -0.65969,1.28411 -0.43392,0.59619 -0.55033,0.78669 -0.67028,1.11478 -0.0776,0.21166 -0.10936,0.26105 -0.16933,0.26105 -0.10584,0 -0.14464,-0.0353 -0.22578,-0.19755 -0.22225,-0.44098 -0.24342,-1.05128 -0.0459,-1.55575 0.16228,-0.41628 0.35631,-0.64559 0.93839,-1.11831 0.40217,-0.32808 0.55739,-0.5468 0.62089,-0.88194 0.0353,-0.1905 0.0318,-0.21872 -0.10584,-1.09361 -0.0388,-0.25048 -0.0811,-0.61736 -0.0917,-0.81139 l -0.0176,-0.35631 0.0847,0.28928 c 0.0459,0.15875 0.14464,0.635 0.2152,1.05833 z m -11.71222,-0.0635 c 0.13758,0.06 0.33514,0.254 0.33514,0.32456 0,0.0212 -0.0706,-0.0212 -0.15875,-0.0882 -0.29986,-0.22577 -0.61384,-0.19755 -0.90311,0.0847 -0.23284,0.22578 -0.32809,0.49389 -0.30339,0.83961 0.06,0.82197 0.91017,1.45345 1.94733,1.45345 0.84667,0 1.44639,-0.41628 1.7145,-1.18886 0.0811,-0.23989 0.17992,-0.81492 0.14817,-0.86784 -0.0106,-0.0212 -0.004,-0.0247 0.0176,-0.0106 0.0212,0.0106 0.0741,0.13053 0.11994,0.26105 0.06,0.17992 0.0811,0.31045 0.0776,0.53623 -0.004,0.36336 -0.0776,0.62794 -0.25753,0.90664 -0.23636,0.36336 -0.51858,0.57149 -1.00894,0.7373 -0.24694,0.0847 -0.33867,0.0952 -0.70555,0.0952 -0.63148,0 -1.11478,-0.13758 -1.55576,-0.45156 -0.39863,-0.28574 -0.65969,-0.71613 -0.73025,-1.20297 -0.13052,-0.88547 0.61384,-1.72508 1.26295,-1.42875 z m -2.14136,0.31398 c 0.10583,0.13758 0.007,0.35983 -0.16228,0.35983 -0.1658,0 -0.28222,-0.20461 -0.1905,-0.33867 0.0811,-0.11994 0.26458,-0.13405 0.35278,-0.0212 z m 3.79236,0.76552 c 0.16933,0.11642 0.23636,0.254 0.23636,0.47273 0,0.34219 -0.29633,0.51858 -0.59972,0.35983 -0.10231,-0.0529 -0.14111,-0.06 -0.14111,-0.0282 0,0.067 -0.17992,0.2293 -0.28575,0.254 -0.11995,0.0318 -0.32809,-0.06 -0.40217,-0.17286 -0.1905,-0.28928 -0.0212,-0.69498 0.29281,-0.71262 0.0988,-0.004 0.16227,-0.0353 0.26105,-0.13405 0.11289,-0.11289 0.14464,-0.127 0.3175,-0.127 0.14464,0 0.21872,0.0212 0.32103,0.0882 z m -3.76414,0.17639 c 0.0529,0.0811 0.0529,0.0952 0,0.17639 -0.10231,0.15522 -0.30339,0.0988 -0.30339,-0.0882 0,-0.18698 0.20108,-0.24342 0.30339,-0.0882 z m -2.56469,3.03739 c 0.23989,0.20108 0.0353,0.55033 -0.254,0.44097 -0.13053,-0.0494 -0.1905,-0.25753 -0.11289,-0.37747 0.0494,-0.0776 0.15522,-0.14464 0.23636,-0.1517 0.0106,-0.004 0.0705,0.0388 0.13053,0.0882 z m 0.87489,1.35467 c 0.11994,0.0705 0.13758,0.11994 0.16227,0.40922 0.0141,0.20108 0.22225,0.56797 0.48331,0.85725 0.0776,0.0882 0.13405,0.1658 0.12347,0.17286 -0.0459,0.0459 -0.46567,-0.25753 -0.74436,-0.53975 -0.29986,-0.30339 -0.47272,-0.56092 -0.47272,-0.70203 0,-0.0811 0.18697,-0.26811 0.27164,-0.26811 0.0353,0 0.11641,0.0318 0.17639,0.0706 z m 4.09927,-10.95376 c -0.75494,0.1517 -1.397,0.47273 -1.96144,0.98425 -0.21167,0.1905 -0.23989,0.26106 -0.0706,0.17639 0.0882,-0.0459 0.26105,-0.067 0.76553,-0.0882 0.39511,-0.0176 0.7373,-0.0494 0.8643,-0.0847 0.29986,-0.0776 0.67028,-0.26105 0.9137,-0.45508 0.19402,-0.1517 0.55033,-0.51858 0.55033,-0.56445 0,-0.0388 -0.82903,-0.0141 -1.06186,0.0317 z m -5.54919,3.1115 c -0.0776,0.41981 -0.0423,1.13948 0.0741,1.45698 0.0635,0.16933 0.26458,0.508 0.32103,0.54328 0.0635,0.0388 0.12347,-0.46567 0.1023,-0.87842 -0.0212,-0.43039 -0.0953,-0.6985 -0.28222,-1.00895 -0.13406,-0.21872 -0.18697,-0.24694 -0.21519,-0.11289 z m 2.90689,0.16581 c -0.56445,0.14817 -0.95956,0.381 -1.34056,0.78317 -0.21166,0.2293 -0.70203,0.89605 -0.65264,0.89605 0.0106,0 0.14464,-0.0705 0.29281,-0.15522 0.14817,-0.0847 0.45861,-0.25047 0.68439,-0.36689 0.64205,-0.33161 1.10066,-0.65969 1.50989,-1.0795 l 0.15522,-0.16228 h -0.17286 c -0.0988,0.004 -0.31045,0.0388 -0.47625,0.0847 z m -1.34761,-2.03553 c -0.42334,0.42686 -0.62795,0.87842 -0.62795,1.37584 0,0.27516 0.0564,0.57502 0.10936,0.57502 0.0635,0 0.381,-0.53269 0.49036,-0.81844 0.0635,-0.15875 0.14112,-0.42333 0.17639,-0.58914 0.0635,-0.29633 0.12348,-0.77964 0.0988,-0.77964 -0.007,0 -0.11994,0.10583 -0.24694,0.23636 z m 14.22753,3.33023 c -0.127,0.17286 -0.32103,0.56444 -0.4057,0.81138 -0.10583,0.32456 -0.14111,0.75142 -0.0953,1.14653 0.067,0.58209 0.0529,0.57856 0.39158,0.0423 0.16581,-0.25753 0.33514,-0.5715 0.37748,-0.6985 0.13052,-0.381 0.1023,-0.80434 -0.0882,-1.28764 l -0.067,-0.17287 z m 0.6985,2.88572 c -0.71967,0.57855 -1.016,1.10066 -0.9772,1.73214 l 0.0106,0.1905 0.16581,-0.2787 c 0.0882,-0.15522 0.31397,-0.48683 0.49741,-0.7373 0.18345,-0.25048 0.38453,-0.53623 0.4445,-0.635 0.10936,-0.17992 0.22931,-0.51506 0.18345,-0.51506 -0.0106,0 -0.15875,0.10936 -0.32456,0.24342 z m -6.1842,-6.57225 c -0.75142,0.13758 -1.23119,0.37041 -1.65806,0.81491 -0.48683,0.51153 -0.69144,1.03364 -0.69144,1.778 0,0.61736 0.0917,0.89606 0.64206,1.93675 0.43038,0.81492 0.50094,1.03364 0.50094,1.56987 0.004,0.39158 -0.004,0.43744 -0.0953,0.635 -0.36336,0.77258 -1.26295,1.32291 -2.51178,1.53811 -0.36689,0.0635 -0.51505,0.0741 -1.11125,0.0564 -0.381,-0.0106 -0.80433,-0.0423 -0.9525,-0.0741 -0.14464,-0.0282 -0.32103,-0.0635 -0.38805,-0.0776 l -0.12348,-0.0247 0.13053,0.0917 c 0.20461,0.14111 0.66322,0.33161 1.06186,0.43745 0.33161,0.0882 0.41275,0.0988 1.01248,0.0953 0.54327,0 0.71966,-0.0106 1.04069,-0.0776 0.82197,-0.17286 1.73567,-0.54328 2.29658,-0.93134 0.36336,-0.25047 0.80786,-0.69144 1.016,-1.01247 0.508,-0.77964 0.64206,-1.5628 0.47978,-2.82575 -0.11642,-0.91369 -0.0776,-1.36525 0.17992,-2.10608 0.11641,-0.33161 0.24694,-0.5715 0.44803,-0.81845 l 0.127,-0.15875 -0.11289,0.0706 c -0.49389,0.28928 -0.94545,0.87136 -1.12184,1.44286 -0.1023,0.33867 -0.0917,1.07244 0.0282,1.6757 0.13053,0.65263 0.1517,1.03011 0.0847,1.47108 -0.13405,0.88547 -0.53622,1.59808 -1.17122,2.06375 -0.33161,0.24341 -0.79022,0.45508 -0.79022,0.36689 0,-0.007 0.17992,-0.19403 0.40217,-0.41628 0.41627,-0.41628 0.59972,-0.65969 0.80786,-1.06892 0.36336,-0.72319 0.42333,-1.36877 0.21872,-2.41652 -0.19756,-1.01601 -0.14817,-1.66864 0.18344,-2.32481 0.13406,-0.27164 0.22225,-0.38806 0.4692,-0.635 0.40922,-0.40922 0.90664,-0.69145 1.29822,-0.73731 0.17992,-0.0212 0.1905,-0.06 0.0247,-0.0917 -0.47272,-0.0917 -1.15711,0.0212 -1.67569,0.27164 -0.41275,0.20108 -0.87842,0.65969 -1.06892,1.04775 -0.18344,0.381 -0.25047,0.76553 -0.22578,1.27 0.0318,0.53975 0.14464,0.889 0.55034,1.6757 0.0988,0.1905 0.22225,0.47625 0.27163,0.63147 0.10231,0.32808 0.1517,0.69144 0.0882,0.69144 -0.0212,0 -0.0388,-0.0247 -0.0388,-0.0529 0,-0.0706 -0.11641,-0.27164 -0.4833,-0.83962 -0.44803,-0.68791 -0.75142,-1.42522 -0.82903,-2.01083 -0.0459,-0.34925 -0.003,-0.87489 0.0988,-1.17475 0.15522,-0.46919 0.28575,-0.68086 0.62089,-1.01247 0.37394,-0.37042 0.65264,-0.55034 1.08656,-0.6985 0.32808,-0.10936 0.30338,-0.12347 -0.11995,-0.0459 z m 1.53106,12.02266 c -0.51506,0.11642 -1.13595,0.42687 -1.53459,0.77612 l -0.14111,0.12347 0.24695,-0.0917 c 0.13758,-0.0494 0.32808,-0.10937 0.42333,-0.13759 0.55386,-0.15169 1.25942,-0.0776 1.81681,0.19402 0.0847,0.0388 0.17991,0.0741 0.20813,0.0741 0.0952,0 0.74437,-0.32808 0.74437,-0.37394 0,-0.0706 -0.29987,-0.35631 -0.46214,-0.44097 -0.0847,-0.0423 -0.23284,-0.0988 -0.33161,-0.12348 -0.2152,-0.06 -0.70556,-0.0564 -0.97014,0 z m -1.06539,1.09362 c -0.381,0.1023 -0.7867,0.2928 -1.26295,0.60325 -0.51858,0.33514 -0.49741,0.32103 -0.74436,0.42333 -0.49036,0.19756 -1.40053,0.25047 -1.85561,0.10936 -0.16581,-0.0529 -0.39864,-0.20461 -0.39864,-0.26105 0,-0.0141 0.29633,-0.0282 0.66322,-0.0282 0.68792,-0.007 0.93486,-0.0423 1.34761,-0.19403 0.24695,-0.0917 0.81139,-0.39158 0.81139,-0.43392 0,-0.0141 -0.0282,-0.0176 -0.06,-0.004 -0.72319,0.30339 -1.54164,0.42686 -2.40947,0.37042 -0.69144,-0.0423 -1.016,-0.10584 -1.45697,-0.28222 -0.1905,-0.0776 -0.36689,-0.14112 -0.38806,-0.14112 -0.0811,0 1.25589,0.81845 1.59809,0.9772 0.28575,0.13405 0.62088,0.23989 0.91722,0.29633 0.27164,0.0494 0.96308,0.0494 1.23472,-0.004 0.33514,-0.0635 1.71097,-0.49389 2.2472,-0.70555 0.53622,-0.20814 1.33702,-0.57856 1.34408,-0.61736 0.0106,-0.0847 -0.36336,-0.16581 -0.82197,-0.17992 -0.39511,-0.0106 -0.50095,-0.004 -0.76553,0.0705 z"
       id="path1"
       style="fill:#2a1f1e;fill-opacity:1;stroke:#2a1f1e;stroke-width:0.035;stroke-dasharray:none;stroke-opacity:1"
       sodipodi:nodetypes="scsccssssccccccccccscccsccccsccccccscccccscccccccsccccccccccsccccccccccccccccccccccccccccsccccccccscccscccccccccccccccccccccccccscsccccccccccccccsccccccccccccccccccccccccccccccccccsccccscccccccccsccscccccscccccsccsccccsscccccccccccsscsscsccccscccccccssscscccccccccccccccsccsssccccsccccccccccsscccscccccccsccsssscsscscscccssccscsssccccccccccssccccccccsccsccccssccssccccccsssccsssccccccccscccscsssscscccccccccccccccccccccccsscccscccccccsscccccssccccccssccccccccsccscccscccccccccc" />
  </g>
</svg>
