<svg xmlns="http://www.w3.org/2000/svg" version="1.1" xmlns:xlink="http://www.w3.org/1999/xlink" xmlns:svgjs="http://svgjs.dev/svgjs" viewBox="0 0 1422 800"><defs><filter id="uuunion-blur" x="-100%" y="-100%" width="400%" height="400%" color-interpolation-filters="sRGB">
        <feGaussianBlur in="SourceGraphic" stdDeviation="3 0" result="blur"></feGaussianBlur>
        <feDropShadow stdDeviation="12.307692307692308" in="blur" dx="10" dy="10" flood-color="#f4bc7cff" flood-opacity="0.25" x="0%" y="0%" width="100%" height="100%"></feDropShadow>
      </filter><filter id="uuunion-blur2" x="-100%" y="-100%" width="400%" height="400%" color-interpolation-filters="sRGB">
        <feGaussianBlur in="SourceGraphic" stdDeviation="3 0" result="blur"></feGaussianBlur>
        <feDropShadow stdDeviation="12.307692307692308" in="blur" dx="-10" dy="-10" flood-color="#f4bc7cff" flood-opacity="0.25" x="0%" y="0%" width="100%" height="100%"></feDropShadow>
      </filter><linearGradient gradientTransform="rotate(0, 0.5, 0.5)" x1="50%" y1="0%" x2="50%" y2="100%" id="uuunion-grad"><stop stop-color="#fef2efff" offset="10%"></stop><stop stop-color="#f4bc7cff" offset="90%"></stop></linearGradient><linearGradient gradientTransform="rotate(135, 0.5, 0.5)" x1="50%" y1="0%" x2="50%" y2="100%" id="uuunion-grad2"><stop stop-color="#fef2efff" offset="25%"></stop><stop stop-color="#f4bc7cff" offset="100%"></stop></linearGradient><linearGradient gradientTransform="rotate(333, 0.5, 0.5)" x1="50%" y1="0%" x2="50%" y2="100%" id="uuunion-grad3"><stop stop-color="#fef2efff" offset="0%"></stop><stop stop-color="#f4bc7cff" offset="75%"></stop></linearGradient></defs><path d="M-131.34 -78.33Q-118.36 -82.33 -105.37 -85.85 -92.39 -88.16 -79.41 -88.77 -66.42 -87.56 -53.44 -84.77 -40.46 -81 -27.48 -77.02 -14.49 -73.65 -1.51 -71.6 11.46 -71.3 24.44 -72.8 37.43 -75.79 50.41 -79.66 63.39 -83.6 76.38 -86.78 89.36 -88.56 102.34 -88.56 115.32 -86.78 128.31 -83.6 141.29 -79.66 154.27 -75.79 167.25 -72.8 180.24 -71.3 193.22 -71.6 206.2 -73.65 219.19 -77.02 232.17 -81 245.15 -84.77 258.13 -87.56 271.12 -88.77 284.1 -88.16 297.08 -85.86 310.07 -82.33 323.05 -78.33 336.03 -74.67 349.01 -72.11 362 -71.2 374.98 -72.1 387.96 -74.65 400.95 -78.31 413.93 -82.32 426.91 -85.84 439.89 -88.15 452.88 -88.77 465.86 -87.57 478.84 -84.79 491.83 -81.02 504.81 -77.03 517.79 -73.66 530.77 -71.61 543.76 -71.3 556.74 -72.79 569.72 -75.78 582.7 -79.64 595.69 -83.58 608.67 -86.77 621.65 -88.56 634.64 -88.57 647.62 -86.8 660.6 -83.61 673.58 -79.68 686.57 -75.81 699.55 -72.81 712.53 -71.3 725.52 -71.6 738.5 -73.64 751.48 -77 764.46 -80.98 777.45 -84.76 790.43 -87.55 803.41 -88.77 816.4 -88.17 829.38 -85.87 842.36 -82.35 855.34 -78.35 868.33 -74.68 881.31 -72.12 894.29 -71.2 907.28 -72.1 920.26 -74.64 933.24 -78.29 946.22 -82.3 959.21 -85.83 972.19 -88.15 985.17 -88.77 998.16 -87.58 1011.14 -84.8 1024.12 -81.04 1037.1 -77.05 1050.09 -73.68 1063.07 -71.62 1076.05 -71.29 1089.04 -72.78 1102.02 -75.76 1115 -79.62 1127.98 -83.56 1140.97 -86.76 1153.95 -88.56 1166.93 -88.57 1179.92 -86.81 1192.9 -83.63 1205.88 -79.7 1218.86 -75.82 1231.85 -72.82 1244.83 -71.3 1257.81 -71.59 1270.8 -73.63 1283.78 -76.98 1296.76 -80.96 1309.74 -84.74 1322.73 -87.54 1335.71 -88.77 1348.69 -88.17 1361.68 -85.88 1374.66 -82.37 1387.64 -78.36 1400.63 -74.7 1413.61 -72.13 1426.59 -71.2 1439.57 -72.09 1452.56 -74.62 1465.54 -78.27 1478.52 -82.28 1491.51 -85.81 1504.49 -88.14 1517.47 -88.77 1530.45 -87.58 1531.09 -72.78 1534.93 -57.97 1541.61 -43.17 1550.48 -28.36 1560.67 -13.55 1571.21 1.24 1581.06 16.05 1589.28 30.85 1595.08 45.66 1597.88 60.47 1597.42 75.27 1593.74 90.08 1587.19 104.88 1578.43 119.69 1568.28 134.5 1557.74 149.3 1547.82 164.11 1539.49 178.91 1533.55 193.72 1530.58 208.53 1530.87 223.33 1534.38 238.14 1540.79 252.94 1549.46 267.75 1559.55 282.56 1570.1 297.36 1580.08 312.17 1588.51 326.97 1594.6 341.78 1597.73 356.59 1597.62 371.39 1594.27 386.2 1588.01 401 1579.44 415.81 1569.39 430.61 1558.84 445.42 1548.81 460.23 1540.27 475.03 1534.05 489.84 1530.74 504.64 1530.68 519.45 1533.86 534.26 1539.98 549.06 1548.45 563.87 1558.44 578.67 1568.99 593.48 1579.07 608.29 1587.72 623.09 1594.08 637.9 1597.55 652.7 1597.79 667.51 1594.77 682.32 1588.8 697.12 1580.43 711.93 1570.5 726.73 1559.96 741.54 1549.82 756.35 1541.08 771.15 1534.58 785.96 1530.94 800.76 1530.53 815.57 1533.38 830.38 1536.76 851.02 1521.15 858.52 1507.99 864.65 1494.83 873.97 1481.67 884.53 1468.51 894.16 1455.35 900.84 1442.2 903.19 1429.04 900.73 1415.88 893.97 1402.72 884.3 1389.56 873.74 1376.4 864.47 1363.24 858.44 1350.09 856.87 1336.93 860.11 1323.77 867.48 1310.61 877.44 1297.45 887.94 1284.29 896.78 1271.14 902.15 1257.98 902.91 1244.82 898.91 1231.66 890.99 1218.5 880.78 1205.34 870.41 1192.18 862.03 1179.03 857.38 1165.87 857.43 1152.71 862.16 1139.55 870.59 1126.39 880.98 1113.23 891.16 1100.07 899.02 1086.92 902.94 1073.76 902.09 1060.6 896.65 1047.44 887.76 1034.28 877.25 1021.12 867.31 1007.97 860.01 994.81 856.86 981.65 858.51 968.49 864.62 955.33 873.92 942.17 884.49 929.01 894.12 915.86 900.82 902.7 903.19 889.54 900.75 876.38 894 863.22 884.34 850.06 873.78 836.91 864.51 823.75 858.45 810.59 856.87 797.43 860.09 784.27 867.44 771.11 877.4 757.95 887.89 744.8 896.75 731.64 902.13 718.48 902.91 705.32 898.94 692.16 891.03 679 880.83 665.85 870.46 652.69 862.06 639.53 857.39 626.37 857.42 613.21 862.13 600.05 870.55 586.9 880.93 573.74 891.12 560.58 899 547.42 902.93 534.26 902.1 521.1 896.68 507.94 887.8 494.79 877.3 481.63 867.35 468.47 860.04 455.31 856.86 442.15 858.49 428.99 864.58 415.84 873.88 402.68 884.44 389.52 894.08 376.36 900.8 363.2 903.19 350.04 900.78 336.89 894.04 323.73 884.39 310.57 873.83 297.41 864.54 284.25 858.47 271.09 856.86 257.93 860.06 244.78 867.4 231.62 877.35 218.46 887.85 205.3 896.72 192.14 902.12 178.98 902.92 165.83 898.97 152.67 891.07 139.51 880.88 126.35 870.5 113.19 862.09 100.03 857.4 86.88 857.41 73.72 862.1 60.56 870.5 47.4 880.88 34.24 891.07 21.08 898.97 7.93 902.92 -5.22 902.12 -18.38 896.72 -31.54 887.85 -44.7 877.35 -57.86 867.39 -71.01 860.06 -84.17 856.86 -97.33 858.47 -110.49 864.55 -128.9 871.59 -132.28 854.31 -131.36 839.26 -131.5 824.22 -132.66 809.18 -134.75 794.14 -137.56 779.09 -140.82 764.05 -144.21 749.01 -147.41 733.97 -150.09 718.92 -152.01 703.88 -152.98 688.84 -152.91 673.8 -151.79 658.75 -149.75 643.71 -146.97 628.67 -143.73 613.63 -140.34 598.58 -137.12 583.54 -134.4 568.5 -132.43 553.45 -131.41 538.41 -131.43 523.37 -132.49 508.33 -134.49 493.28 -137.24 478.24 -140.46 463.2 -143.86 448.16 -147.09 433.11 -149.84 418.07 -151.85 403.03 -152.93 387.99 -152.97 372.94 -151.96 357.9 -150 342.86 -147.29 327.81 -144.08 312.77 -140.69 297.73 -137.45 282.69 -134.66 267.64 -132.6 252.6 -131.47 237.56 -131.38 222.52 -132.33 207.47 -134.24 192.43 -136.92 177.39 -140.11 162.35 -143.5 147.3 -146.76 132.26 -149.58 117.22 -151.68 102.17 -152.86 87.13 -153.01 72.09 -152.11 57.05 -150.25 42 -147.61 26.96 -144.44 11.92 -141.05 -3.11 -137.78 -18.16 -134.93 -33.2 -132.78 -48.24 -131.54 -63.28 -131.34 -78.33" fill="url(#uuunion-grad)"></path><path d="M-131.35 -78.32Q-131.55 -63.28 -132.79 -48.24 -134.94 -33.2 -137.79 -18.15 -141.06 -3.11 -144.45 11.92 -147.62 26.97 -150.26 42.01 -152.12 57.05 -153.02 72.09 -152.87 87.14 -151.69 102.18 -149.59 117.22 -146.77 132.26 -143.51 147.31 -140.12 162.35 -136.93 177.39 -134.25 192.44 -132.34 207.48 -131.39 222.52 -131.48 237.56 -132.61 252.61 -134.67 267.65 -137.46 282.69 -140.7 297.73 -144.09 312.78 -147.3 327.82 -150.01 342.86 -151.97 357.91 -152.98 372.95 -147.85 393.07 -133.67 393.44 -124.58 389.34 -115.49 386.24 -106.39 384.41 -97.3 384.04 -88.2 385.16 -79.11 387.65 -70.01 391.3 -60.92 395.76 -51.82 400.61 -42.73 405.41 -33.63 409.7 -24.54 413.08 -7.35 415.79 -4.32 415.96 6.84 411.23 18.04 404.44 29.28 396.13 40.56 387.05 51.87 378.08 63.2 370.05 74.57 363.66 85.96 359.37 97.36 357.35 108.78 357.41 120.22 359.08 131.66 361.67 143.1 364.35 154.54 366.27 165.98 366.71 177.41 365.18 188.83 361.44 200.23 355.61 211.62 348.09 222.98 339.51 234.33 330.68 245.64 322.42 256.92 315.46 268.18 310.35 279.4 307.36 290.58 306.46 301.73 307.32 312.85 309.35 323.92 311.8 334.96 313.86 345.95 314.8 356.91 314.02 367.83 311.21 378.72 306.33 389.57 299.64 400.38 291.68 411.17 283.15 421.92 274.83 432.65 267.47 443.35 261.67 454.03 257.81 464.69 255.98 475.33 255.98 485.96 257.35 496.59 259.43 507.21 261.47 517.83 262.72 528.45 262.56 539.08 260.56 549.72 256.59 560.37 250.77 571.05 243.51 581.75 235.41 592.48 227.19 603.25 219.6 614.04 213.26 624.88 208.63 635.76 205.93 646.69 205.07 657.67 205.71 668.7 207.3 679.79 209.16 690.93 210.56 702.14 210.86 713.4 209.57 724.73 206.43 736.12 201.47 747.58 194.96 759.1 187.4 770.68 179.43 782.33 171.76 794.04 165.04 805.82 159.78 817.65 156.28 829.54 154.58 841.49 154.45 853.49 155.47 865.53 157.01 877.62 158.41 889.76 159.01 901.93 158.29 914.13 155.9 926.36 151.75 938.61 146.02 950.88 139.07 963.15 131.48 975.44 123.88 987.72 116.94 999.99 111.18 1012.25 106.98 1024.49 104.49 1036.7 103.6 1048.88 103.96 1061.02 105.08 1073.12 106.33 1085.16 107.09 1097.14 106.79 1109.06 105.04 1120.91 101.65 1132.68 96.68 1144.37 90.39 1155.98 83.27 1167.49 75.89 1178.92 68.87 1190.24 62.76 1201.46 57.99 1212.57 54.78 1223.58 53.13 1234.48 52.82 1245.27 53.43 1255.95 54.41 1266.51 55.17 1276.96 55.15 1287.3 53.91 1297.53 51.2 1307.65 46.95 1317.66 41.36 1327.57 34.78 1337.38 27.72 1347.09 20.75 1356.72 14.44 1366.25 9.22 1375.71 5.39 1385.09 3.04 1394.4 2.04 1403.65 2.08 1412.04 -5.77 1401.9 -31.84 1395.2 -49.42 1392.02 -67.01 1392.78 -84.6 1397.39 -102.19 1405.23 -119.77 1415.27 -137.36 1403.03 -140.66 1390.79 -143.85 1378.55 -146.35 1366.31 -147.72 1354.07 -147.72 1341.82 -146.35 1329.58 -143.85 1317.34 -140.66 1305.1 -137.36 1292.86 -134.53 1280.62 -132.66 1268.38 -132.1 1256.14 -132.94 1243.9 -135.03 1231.66 -138.01 1219.42 -141.33 1207.18 -144.42 1194.94 -146.72 1182.7 -147.83 1170.46 -147.55 1158.22 -145.92 1145.98 -143.25 1133.74 -139.99 1121.5 -136.74 1109.26 -134.06 1097.02 -132.44 1084.78 -132.16 1072.54 -133.27 1060.3 -135.58 1048.06 -138.67 1035.81 -141.99 1023.57 -144.96 1011.33 -147.05 999.09 -147.89 986.85 -147.32 974.61 -145.46 962.37 -142.62 950.13 -139.32 937.89 -136.14 925.65 -133.64 913.41 -132.27 901.17 -132.27 888.93 -133.65 876.69 -136.15 864.45 -139.33 852.21 -142.64 839.97 -145.47 827.73 -147.33 815.49 -147.89 803.25 -147.04 791.01 -144.95 778.77 -141.98 766.53 -138.65 754.29 -135.56 742.04 -133.26 729.8 -132.16 717.56 -132.44 705.32 -134.07 693.08 -136.75 680.84 -140.01 668.6 -143.26 656.36 -145.93 644.12 -147.55 631.88 -147.83 619.64 -146.71 607.4 -144.41 595.16 -141.32 582.92 -137.99 570.68 -135.02 558.44 -132.93 546.2 -132.1 533.96 -132.67 521.72 -134.54 509.48 -137.38 497.24 -140.68 485 -143.86 472.76 -146.36 460.52 -147.72 448.27 -147.71 436.03 -146.34 423.79 -143.83 411.55 -140.65 399.31 -137.35 387.07 -134.52 374.83 -132.66 362.59 -132.1 350.35 -132.95 338.11 -135.05 325.87 -138.02 313.63 -141.35 301.39 -144.44 289.15 -146.73 276.91 -147.83 264.67 -147.54 252.43 -145.91 240.19 -143.23 227.95 -139.97 215.71 -136.72 203.47 -134.05 191.23 -132.43 178.99 -132.16 166.75 -133.28 154.5 -135.59 142.26 -138.68 130.02 -142.01 117.78 -144.98 105.54 -147.06 93.3 -147.89 81.06 -147.32 68.82 -145.44 56.58 -142.6 44.34 -139.3 32.1 -136.12 19.86 -133.63 7.62 -132.27 -4.61 -132.28 -16.85 -133.66 -29.09 -136.17 -41.33 -139.35 -53.57 -142.65 -65.81 -145.48 -78.05 -147.34 -90.29 -147.89 -102.53 -147.04 -114.77 -144.94 -127.01 -141.96 -139.26 -138.63 -151.5 -135.55 -145.35 -121.13 -139.79 -106.79 -135.07 -92.52 -131.35 -78.32" fill="url(#uuunion-grad2)" filter="url(#uuunion-blur)"></path><path d="M1433.28 324.93Q1442.26 328.91 1451.23 332.06 1460.21 334.08 1469.18 334.79 1478.15 334.13 1487.13 332.14 1496.1 329.03 1505.08 325.07 1514.05 320.64 1523.03 316.15 1532 312.02 1540.98 308.63 1549.95 306.3 1558.93 305.24 1567.9 305.57 1576.88 307.23 1587.25 324.51 1594.6 341.78 1597.94 359.05 1596.85 376.33 1591.47 393.6 1582.5 410.87 1571.13 428.15 1558.84 445.42 1547.26 462.69 1537.9 479.97 1532 497.24 1530.33 514.52 1533.12 531.79 1539.98 549.06 1550.04 566.34 1561.95 583.61 1574.15 600.88 1585.05 618.16 1593.21 635.43 1597.55 652.7 1597.51 669.98 1593.09 687.25 1584.87 704.53 1573.93 721.8 1561.71 739.07 1549.82 756.35 1539.82 773.62 1533.02 790.89 1530.32 808.17 1532.08 825.44 1536.72 849.82 1523.32 857.92 1511.25 862.77 1499.18 870.64 1487.12 880.15 1475.05 889.63 1462.98 897.42 1450.91 902.16 1438.84 903.02 1426.77 899.84 1414.7 893.19 1402.63 884.22 1390.56 874.52 1378.49 865.77 1366.42 859.52 1354.35 856.85 1342.28 858.23 1330.21 863.43 1318.14 871.53 1306.07 881.12 1294 890.5 1281.93 898.05 1269.86 902.43 1257.79 902.88 1245.72 899.33 1233.65 892.38 1221.58 883.27 1209.51 873.58 1197.44 865.02 1185.37 859.08 1173.3 856.8 1161.23 858.59 1149.16 864.13 1137.09 872.44 1125.02 882.08 1112.96 891.36 1100.89 898.64 1088.82 902.66 1076.75 902.7 1064.68 898.77 1052.61 891.55 1040.54 882.31 1028.47 872.66 1016.4 864.29 1004.33 858.68 992.26 856.8 980.19 858.98 968.12 864.85 956.05 873.36 943.98 883.04 931.91 892.19 919.84 899.2 907.77 902.84 895.7 902.49 883.63 898.19 871.56 890.71 859.49 881.34 847.42 871.75 835.35 863.59 823.28 858.32 811.21 856.83 799.14 859.41 787.07 865.59 775 874.3 762.93 884 750.86 893 738.79 899.72 726.73 902.99 714.66 902.23 702.59 897.57 690.52 889.84 678.45 880.38 666.38 870.85 654.31 862.92 642.24 857.99 630.17 856.91 618.1 859.87 606.03 866.36 593.96 875.24 581.89 884.95 569.82 893.79 557.75 900.22 545.68 903.1 533.61 901.94 521.54 896.93 509.47 888.95 497.4 879.41 485.33 869.97 473.26 862.28 461.19 857.7 449.12 857.03 437.05 860.37 424.98 867.16 412.91 876.19 400.84 885.89 388.77 894.56 376.7 900.67 364.63 903.17 352.56 901.6 340.5 896.25 328.43 888.05 316.36 878.44 304.29 869.11 292.22 861.68 280.15 857.45 268.08 857.18 256.01 860.91 243.94 867.97 231.87 877.15 219.8 886.82 207.73 895.3 195.66 901.09 183.59 903.19 171.52 901.23 159.45 895.55 147.38 887.14 135.31 877.48 123.24 868.26 111.17 861.1 99.1 857.24 87.03 857.38 74.96 861.47 62.89 868.81 50.82 878.11 38.75 887.74 26.68 896.01 9.19 897.25 4.77 882.88 5.53 872.73 6.01 862.58 6.18 852.43 6.05 842.28 5.49 827.06 5.86 822 17.53 813.65 29.18 801.69 40.82 787.2 52.48 771.69 64.17 756.87 75.91 744.28 87.72 735.07 99.62 729.74 111.6 728.09 123.69 729.25 135.87 731.85 148.16 734.26 160.55 734.91 173.04 732.55 185.62 726.5 198.27 716.76 210.99 704 223.76 689.43 236.57 674.58 249.4 661.03 262.23 650.09 275.05 642.59 287.84 638.73 300.58 638.03 313.27 639.46 325.89 641.6 338.43 642.91 350.88 642.02 363.24 637.98 375.51 630.42 387.69 619.61 399.77 606.4 411.78 592.1 423.71 578.18 435.59 566.03 447.42 556.71 459.22 550.75 471.02 548.06 482.82 547.96 494.66 549.31 506.55 550.71 518.51 550.76 530.57 548.33 542.73 542.75 555.03 533.93 567.46 522.38 580.05 509.08 592.81 495.34 605.73 482.53 618.82 471.83 632.08 464.03 645.5 459.38 659.08 457.55 672.79 457.72 686.62 458.68 700.55 459.12 714.56 457.82 728.62 453.91 742.69 446.99 756.76 437.2 770.78 425.24 784.73 412.16 798.57 399.22 812.27 387.64 822.38 383.75 832.49 381.54 842.59 381.1 852.69 382.34 862.79 384.98 872.88 388.59 882.96 392.62 893.04 396.49 903.11 399.62 913.18 401.53 923.24 401.88 933.28 400.48 943.32 397.36 953.35 392.74 963.37 386.98 973.38 380.6 983.37 374.16 993.36 368.24 1003.33 363.37 1013.29 359.93 1023.24 358.17 1033.17 358.15 1043.09 359.71 1052.99 362.55 1062.88 366.21 1072.75 370.14 1082.61 373.76 1092.45 376.53 1102.27 378.02 1112.08 377.91 1121.86 376.08 1131.63 372.61 1141.38 367.74 1151.11 361.88 1160.82 355.54 1170.52 349.3 1180.19 343.7 1189.84 339.23 1199.47 336.24 1209.08 334.92 1218.67 335.28 1228.24 337.13 1237.79 340.12 1247.32 343.79 1256.82 347.58 1266.31 350.93 1275.77 353.33 1285.21 354.38 1294.63 353.82 1304.02 351.59 1313.39 347.79 1322.75 342.72 1332.08 336.8 1341.38 330.55 1350.67 324.53 1359.93 319.27 1369.18 315.21 1378.4 312.66 1387.6 311.76 1396.78 312.47 1405.93 314.57 1415.07 317.68 1424.19 321.31 1433.28 324.93" fill="url(#uuunion-grad3)" filter="url(#uuunion-blur2)"></path></svg>